<?xml version="1.0" encoding="UTF-8"?><svg xmlns="http://www.w3.org/2000/svg" viewBox="0 0 14.86 16.32"><g id="a"/><g id="b"><g><path d="M5.89,15.09c.97-1.61,.18-3.78-1.84-4.79,0,0,1.96,1.92,1.56,3.85-.68-1.21-5.76-2.73-3.34-8.19-.07,1.71,1.7,2.82,3.01,3.8,.74,.55,1.46,1.22,1.72,2.09,.33,1.12,.14,2.14-.21,2.83,1.21-.69,2.42-2.28,1.95-5.43-.15-.98-.46-1.93-.54-2.92-.17-2.1,.38-3.88,1.74-5.27-.79-.28-1.64-.44-2.52-.44C3.32,.61,0,3.94,0,8.03c0,3.53,2.46,6.48,5.76,7.23,.05-.06,.09-.12,.13-.18Z" style="fill:#95c11f;"/><path d="M12.03,2.22h0c-.94-1.18-.8-2.22-.8-2.22h0c-.94,2.06,1.8,4.18,1.98,7.54,.14,2.63-1.3,4.52-2.5,4.92,0,0,.95-3.03-.46-6.64,.74,4.18,0,9.4-4.98,10.18h0c1.36,.04,2.24-.35,2.61-.56,3.89-.24,6.97-3.46,6.97-7.41,0-2.36-1.1-4.45-2.81-5.81Z" style="fill:#f39200;"/></g></g></svg>