<?xml version="1.0" encoding="UTF-8"?><svg xmlns="http://www.w3.org/2000/svg" viewBox="0 0 93.87 16.32"><g id="a"/><g id="b"><g><path d="M5.89,15.09c.97-1.61,.18-3.78-1.84-4.79,0,0,1.96,1.92,1.56,3.85-.68-1.21-5.76-2.73-3.34-8.19-.07,1.71,1.7,2.82,3.01,3.8,.74,.55,1.46,1.22,1.72,2.09,.33,1.12,.14,2.14-.21,2.83,1.21-.69,2.42-2.28,1.95-5.43-.15-.98-.46-1.93-.54-2.92-.17-2.1,.38-3.88,1.74-5.27-.79-.28-1.64-.44-2.52-.44C3.32,.61,0,3.94,0,8.03c0,3.53,2.46,6.48,5.76,7.23,.05-.06,.09-.12,.13-.18Z" style="fill:#95c11f;"/><path d="M12.03,2.22h0c-.94-1.18-.8-2.22-.8-2.22h0c-.94,2.06,1.8,4.18,1.98,7.54,.14,2.63-1.3,4.52-2.5,4.92,0,0,.95-3.03-.46-6.64,.74,4.18,0,9.4-4.98,10.18h0c1.36,.04,2.24-.35,2.61-.56,3.89-.24,6.97-3.46,6.97-7.41,0-2.36-1.1-4.45-2.81-5.81Z" style="fill:#f39200;"/></g><g><path d="M19.17,2.75h4.45c1.91,0,3.16,.99,3.16,2.62,0,1.3-.77,2.08-1.83,2.34v.09c1.28,.12,2.38,1,2.38,2.6,0,1.91-1.55,3.01-3.71,3.01h-4.44V2.75Zm2.09,4.44h1.39c1.41,0,2.04-.52,2.04-1.45,0-.87-.58-1.4-1.56-1.4h-1.87v2.85Zm0,4.64h1.56c1.66,0,2.34-.53,2.34-1.55s-.67-1.62-1.91-1.62h-2v3.17Z" style="fill:#fff;"/><path d="M35.77,8.93v.61c0,2.41-1.34,4.02-3.79,4.02s-3.8-1.6-3.8-4.01v-.61c0-2.29,1.35-3.97,3.8-3.97s3.79,1.67,3.79,3.96Zm-5.51,0v.64c0,1.3,.52,2.38,1.72,2.38s1.71-1.07,1.71-2.38v-.64c0-1.35-.52-2.37-1.71-2.37s-1.72,1.02-1.72,2.37Z" style="fill:#fff;"/><path d="M37.49,3.14h2v1.98h1.61v1.59h-1.61v4.09c0,.83,.35,1.08,1.2,1.08,.17,0,.34,0,.44-.02v1.52c-.16,.03-.52,.07-.94,.07-2.06,0-2.74-.7-2.74-2.39V6.72h-1.17v-1.59h1.21v-1.98Z" style="fill:#fff;"/><path d="M42.04,11.02c0-1.48,1.03-2.44,2.95-2.44h2.02v-.75c0-.83-.5-1.29-1.37-1.29s-1.33,.45-1.38,1.11h-1.92c.06-1.38,.95-2.66,3.34-2.66,1.91,0,3.36,.89,3.36,2.82v5.6h-1.95v-1.01h-.09c-.33,.61-1.03,1.13-2.25,1.13-1.62,0-2.73-.95-2.73-2.52Zm4.98-.33v-.88h-1.58c-.91,0-1.35,.44-1.35,1.07,0,.77,.66,1.15,1.34,1.15,.88,0,1.59-.54,1.59-1.34Z" style="fill:#fff;"/><path d="M50.37,5.12h2v1.21h.09c.27-.57,1.02-1.34,2.41-1.34,1.69,0,2.87,1.05,2.87,3.09v5.34h-2.05v-4.89c0-1.27-.73-1.78-1.62-1.78-1.06,0-1.64,.77-1.64,1.81v4.86h-2.05V5.12Z" style="fill:#fff;"/><path d="M63.73,13.18l-.21,.57c-.72,1.91-1.72,2.57-3.52,2.57-.35,0-.8-.03-1.05-.09v-1.48c.13,.02,.42,.05,.67,.05,.94,0,1.37-.3,1.52-1.07l.08-.3-2.88-8.3h2.27l1.77,6.43h.08l1.8-6.43h2.18c-.58,1.88-2.7,8.01-2.72,8.05Z" style="fill:#fff;"/><path d="M69.16,2.75h4.45c1.91,0,3.16,.99,3.16,2.62,0,1.3-.77,2.08-1.83,2.34v.09c1.28,.12,2.38,1,2.38,2.6,0,1.91-1.55,3.01-3.71,3.01h-4.44V2.75Zm2.09,4.44h1.39c1.41,0,2.04-.52,2.04-1.45,0-.87-.58-1.4-1.56-1.4h-1.87v2.85Zm0,4.64h1.56c1.66,0,2.34-.53,2.34-1.55s-.67-1.62-1.91-1.62h-2v3.17Z" style="fill:#fff;"/><path d="M78.12,11.02c0-1.48,1.03-2.44,2.95-2.44h2.02v-.75c0-.83-.5-1.29-1.37-1.29s-1.33,.45-1.38,1.11h-1.92c.06-1.38,.95-2.66,3.34-2.66,1.91,0,3.36,.89,3.36,2.82v5.6h-1.95v-1.01h-.09c-.33,.61-1.03,1.13-2.25,1.13-1.62,0-2.73-.95-2.73-2.52Zm4.98-.33v-.88h-1.58c-.91,0-1.35,.44-1.35,1.07,0,.77,.66,1.15,1.34,1.15,.88,0,1.59-.54,1.59-1.34Z" style="fill:#fff;"/><path d="M91.16,13.18l-.21,.57c-.72,1.91-1.72,2.57-3.52,2.57-.35,0-.8-.03-1.05-.09v-1.48c.13,.02,.42,.05,.67,.05,.94,0,1.37-.3,1.52-1.07l.08-.3-2.88-8.3h2.27l1.77,6.43h.08l1.8-6.43h2.18c-.58,1.88-2.7,8.01-2.72,8.05Z" style="fill:#fff;"/></g></g></svg>